<?xml version="1.0" encoding="UTF-8" standalone="no"?><!-- (c) Copyright by Applications for student --><svg width="317.5mm" height="125.412mm" xmlns="http://www.w3.org/2000/svg" xmlns:xlink="http://www.w3.org/1999/xlink" version="1.2" baseProfile="tiny"><title>Applications for student Logo</title><g fill="none" stroke="black" stroke-width="1" fill-rule="evenodd" stroke-linecap="square" stroke-linejoin="bevel"><g fill="#000000" fill-opacity="1" stroke="#000000" stroke-opacity="1" stroke-width="1" stroke-linecap="square" stroke-linejoin="miter" stroke-miterlimit="2" transform="matrix(1,0,0,1,0,0)"></g><g fill="#000000" fill-opacity="1" stroke="#000000" stroke-opacity="1" stroke-width="1" stroke-linecap="square" stroke-linejoin="miter" stroke-miterlimit="2" transform="matrix(1,0,0,1,0,0)"></g><g fill="#000000" fill-opacity="1" stroke="#000000" stroke-opacity="1" stroke-width="1" stroke-linecap="square" stroke-linejoin="miter" stroke-miterlimit="2" transform="matrix(1,0,0,1,0,0)"></g><g fill="#51c784" fill-opacity="1" stroke="none" transform="matrix(1,0,0,1,0,0)"><path vector-effect="none" fill-rule="evenodd" d="M113,43 L263,43 L263,193 L113,193 L113,43"/></g><g fill="#000000" fill-opacity="1" stroke="#000000" stroke-opacity="1" stroke-width="1" stroke-linecap="square" stroke-linejoin="bevel" transform="matrix(1,0,0,1,0,0)"><text fill="#000000" fill-opacity="1" stroke="none" xml:space="preserve" x="268" y="198" font-family="Arial" font-size="16" font-weight="400" font-style="normal"></text></g><g fill="#ffab59" fill-opacity="1" stroke="none" transform="matrix(1,0,0,1,0,0)"><path vector-effect="none" fill-rule="evenodd" d="M277,43 L427,43 L427,193 L277,193 L277,43"/></g><g fill="#ff6db2" fill-opacity="1" stroke="none" transform="matrix(1,0,0,1,0,0)"><path vector-effect="none" fill-rule="evenodd" d="M113,207 L263,207 L263,357 L113,357 L113,207"/></g><g fill="#000000" fill-opacity="1" stroke="#000000" stroke-opacity="1" stroke-width="1" stroke-linecap="square" stroke-linejoin="bevel" transform="matrix(1,0,0,1,0,0)"><text fill="#000000" fill-opacity="1" stroke="none" xml:space="preserve" x="268" y="362" font-family="Arial" font-size="16" font-weight="400" font-style="normal"></text></g><g fill="#9e87ff" fill-opacity="1" stroke="none" transform="matrix(1,0,0,1,0,0)"><path vector-effect="none" fill-rule="evenodd" d="M277,207 L427,207 L427,357 L277,357 L277,207"/></g><g fill="#ffffff" fill-opacity="1" stroke="none" transform="matrix(1,0,0,1,0,0)"><path vector-effect="none" fill-rule="evenodd" d="M273,126 C314.421,126 348,159.579 348,201 C348,242.421 314.421,276 273,276 C231.579,276 198,242.421 198,201 C198,159.579 231.579,126 273,126 "/></g><g fill="#000000" fill-opacity="1" stroke="#000000" stroke-opacity="1" stroke-width="1" stroke-linecap="square" stroke-linejoin="bevel" transform="matrix(1,0,0,1,0,0)"><text fill="#000000" fill-opacity="1" stroke="none" xml:space="preserve" x="528" y="221" font-family="Arial" font-size="60" font-weight="400" font-style="normal">Applications for student</text></g><g fill="#000000" fill-opacity="1" stroke="#000000" stroke-opacity="1" stroke-width="1" stroke-linecap="square" stroke-linejoin="miter" stroke-miterlimit="2" transform="matrix(1,0,0,1,0,0)"></g><g fill="#000000" fill-opacity="1" stroke="#000000" stroke-opacity="1" stroke-width="1" stroke-linecap="square" stroke-linejoin="miter" stroke-miterlimit="2" transform="matrix(1,0,0,1,0,0)"></g><g fill="#000000" fill-opacity="1" stroke="#000000" stroke-opacity="1" stroke-width="1" stroke-linecap="square" stroke-linejoin="miter" stroke-miterlimit="2" transform="matrix(1,0,0,1,0,0)"></g></g></svg>